<?xml version="1.0" standalone="no"?>
<!DOCTYPE svg PUBLIC "-//W3C//DTD SVG 20010904//EN"
 "http://www.w3.org/TR/2001/REC-SVG-20010904/DTD/svg10.dtd">
<svg version="1.0" xmlns="http://www.w3.org/2000/svg"
 width="621.000000pt" height="900.000000pt" viewBox="0 0 621.000000 900.000000"
 preserveAspectRatio="xMidYMid meet">
<metadata>
Created by potrace 1.10, written by Peter Selinger 2001-2011
</metadata>
<g transform="translate(0.000000,900.000000) scale(0.100000,-0.100000)"
fill="#000000" stroke="none">
<path d="M315 8814 c-66 -33 -119 -86 -150 -151 l-25 -54 0 -4088 0 -4089 24
-53 c34 -75 71 -113 143 -148 l62 -31 2695 0 2695 0 56 25 c68 29 120 82 151
153 l24 53 0 4088 c0 4033 0 4090 -20 4135 -27 64 -91 129 -156 160 l-55 26
-2697 -1 -2697 0 -50 -25z m5234 -2757 c5 -12 18 -169 30 -347 16 -248 21
-426 21 -752 0 -505 -9 -674 -76 -1378 -18 -197 -45 -409 -54 -435 -7 -19 -8
-18 -14 5 -3 14 -7 216 -9 450 -5 454 -4 448 -68 765 -41 204 -162 671 -179
689 -25 26 -30 -14 -30 -237 0 -229 -20 -660 -40 -893 -6 -65 -11 -159 -12
-207 0 -64 -4 -90 -14 -94 -25 -10 -54 -70 -68 -144 -21 -111 -78 -229 -90
-187 -2 7 -11 38 -20 69 -9 30 -20 94 -24 140 -9 81 -32 149 -52 149 -17 0
-33 41 -21 53 7 7 11 70 11 178 0 207 -3 211 -89 145 -33 -25 -64 -46 -70 -46
-15 0 -36 -43 -24 -47 36 -12 46 -31 47 -93 1 -42 -3 -64 -11 -67 -13 -5 -17
2 -28 50 -7 36 -36 33 -46 -6 -4 -15 -8 -191 -8 -392 -2 -344 -3 -367 -22
-411 -12 -27 -25 -42 -30 -37 -5 5 -10 149 -11 321 -2 199 -7 312 -13 313 -5
0 -13 -13 -16 -28 -14 -63 -76 -150 -94 -131 -3 3 4 48 16 99 17 74 21 123 20
232 -1 75 2 137 6 137 27 1 45 33 53 92 5 35 16 108 25 163 54 344 111 764
139 1045 30 289 35 355 41 480 7 138 11 170 24 170 11 0 30 -70 40 -155 5 -38
20 -135 34 -215 79 -463 124 -924 143 -1459 3 -101 10 -195 14 -210 l7 -26 6
30 c44 202 62 1513 27 1938 -18 213 0 201 95 -63 140 -386 246 -723 315 -995
5 -22 14 -47 20 -55 22 -34 30 18 30 210 -1 284 -31 995 -46 1075 -5 30 -1 39
41 84 26 28 52 51 57 51 4 0 12 -10 17 -23z m-4887 -49 c21 -23 38 -48 38 -57
-4 -195 12 -813 25 -966 20 -240 23 -265 36 -265 17 0 27 43 38 165 16 178 82
562 151 875 12 52 24 108 27 124 4 19 20 37 51 57 75 47 92 37 81 -49 -12 -92
-38 -373 -51 -567 -16 -229 -16 -918 0 -1180 27 -433 59 -805 72 -840 7 -19 6
-25 -4 -25 -37 0 -75 86 -91 205 -8 58 -23 91 -58 123 -20 19 -24 30 -20 60 2
20 -3 136 -12 257 -9 121 -18 339 -21 485 -5 258 -10 357 -20 347 -14 -14 -34
-139 -43 -277 -17 -242 -30 -629 -24 -712 6 -79 -2 -148 -17 -148 -4 0 -13 21
-19 48 -26 122 -109 648 -126 802 -11 101 -37 275 -41 279 -2 2 -7 2 -10 -2
-9 -9 -5 -377 6 -539 5 -79 12 -179 15 -223 17 -252 28 -354 41 -391 14 -39
13 -43 -11 -85 -23 -42 -25 -52 -25 -199 -1 -152 -12 -219 -37 -227 -7 -3 -13
19 -17 64 -6 69 -25 267 -51 538 -42 431 -49 590 -49 1050 0 356 4 501 17 640
23 244 71 625 82 663 7 22 27 13 67 -30z m3762 -87 c3 -4 8 -77 12 -162 3 -85
10 -172 15 -194 4 -23 4 -44 -1 -49 -23 -23 -79 71 -80 132 0 69 -65 137 -104
109 -15 -11 -15 -45 -8 -387 9 -375 0 -1103 -17 -1364 -6 -93 -5 -147 2 -166
10 -25 8 -31 -19 -54 -31 -25 -64 -105 -64 -153 0 -33 -36 -100 -61 -114 -20
-10 -21 -9 -15 17 12 48 26 308 17 317 -5 5 -28 7 -52 5 l-44 -3 0 -345 0
-345 24 -35 c34 -49 72 -79 99 -80 31 0 114 -49 109 -64 -6 -19 -107 -6 -158
20 -54 27 -114 93 -131 143 -8 25 -13 152 -15 398 l-4 362 22 12 c14 7 45 9
80 6 96 -8 89 -52 100 584 6 327 7 693 2 894 l-8 340 -23 3 c-47 7 -92 -59
-92 -133 0 -56 -33 -125 -59 -125 -16 0 -18 5 -12 33 4 17 5 100 1 182 -3 83
-3 157 2 166 5 12 29 18 90 23 46 4 135 13 198 20 143 17 187 18 194 7z m-556
-48 c11 -21 22 -382 12 -388 -11 -7 -45 37 -57 75 -6 19 -14 56 -18 82 -9 67
-68 111 -103 76 -8 -8 -10 -117 -5 -417 3 -223 0 -625 -6 -893 -6 -298 -7
-497 -1 -512 7 -19 5 -28 -11 -42 -10 -9 -19 -29 -19 -44 0 -15 -8 -37 -19
-49 -10 -11 -21 -38 -25 -59 -7 -47 -41 -102 -62 -102 -13 0 -15 6 -10 32 15
76 19 198 6 213 -17 20 -66 20 -74 -1 -3 -9 -6 -114 -6 -235 l0 -219 26 -10
c14 -6 40 -10 58 -10 45 0 56 -16 56 -82 0 -69 -21 -79 -44 -23 -18 43 -58 64
-82 44 -22 -18 -14 -110 14 -166 25 -49 75 -93 106 -93 28 0 98 -35 109 -55 7
-13 -1 -15 -49 -15 -71 0 -133 29 -183 86 -62 71 -71 112 -71 333 l0 193 -39
37 c-41 38 -63 80 -75 144 -4 23 -20 51 -43 73 -28 28 -34 41 -30 62 6 29 -20
248 -32 270 -5 8 -33 -8 -91 -55 -93 -74 -97 -82 -99 -189 -1 -55 -4 -63 -36
-94 -22 -21 -37 -47 -41 -69 -12 -74 -51 -151 -76 -151 -10 0 -6 69 18 285 30
281 35 322 44 380 5 33 14 101 19 150 20 183 42 351 51 385 6 19 10 53 10 75
0 21 7 82 14 135 40 258 56 377 71 510 17 156 30 220 45 220 13 0 16 -17 41
-210 11 -91 27 -210 34 -265 62 -458 152 -1221 160 -1350 7 -96 23 -228 32
-259 12 -42 23 13 23 121 0 76 4 114 12 119 6 4 36 8 66 9 29 1 58 7 65 14 8
8 11 242 12 894 l0 882 -26 3 c-33 4 -76 -44 -84 -93 -3 -19 -7 -50 -10 -67
-7 -39 -40 -82 -57 -75 -20 7 -8 364 12 377 8 5 74 10 145 11 72 1 164 5 205
9 41 4 83 7 92 8 10 1 21 -6 26 -15z m-1638 -150 c-18 -202 -25 -1466 -10
-1753 21 -380 22 -420 15 -438 -6 -15 -8 -15 -15 3 -5 11 -9 36 -9 56 -1 20
-7 52 -15 70 -8 19 -17 62 -21 96 -12 105 -25 60 -25 -86 0 -166 -13 -217 -75
-288 l-43 -49 34 -38 c61 -66 77 -110 82 -222 3 -70 1 -103 -7 -108 -15 -10
-61 89 -61 133 0 79 -66 192 -104 178 -15 -6 -17 -21 -16 -109 1 -118 -20
-198 -53 -198 -14 0 -11 929 3 944 5 5 51 8 103 7 77 -2 98 1 111 15 10 9 14
24 11 33 -4 9 -17 66 -30 126 -13 61 -29 126 -36 145 -6 19 -17 51 -24 70 -7
19 -18 51 -24 70 -7 19 -17 49 -21 65 -5 17 -39 116 -75 220 -37 105 -70 206
-74 226 -4 19 -12 42 -16 50 -5 8 -12 32 -15 53 -4 34 -32 69 -43 56 -2 -3 -1
-269 4 -593 6 -424 11 -597 20 -622 12 -31 10 -37 -14 -73 -23 -32 -29 -55
-37 -141 -13 -135 -25 -181 -49 -181 -11 0 -21 9 -25 23 -8 29 -43 70 -54 63
-5 -3 -12 -19 -15 -36 -10 -46 -53 -107 -100 -139 -82 -58 -79 -50 -76 -174 3
-101 1 -117 -20 -160 -14 -28 -27 -45 -32 -40 -5 5 -8 214 -7 474 l3 464 50 3
c29 2 55 9 61 17 13 17 7 114 -9 133 -17 21 -32 11 -105 -76 l-71 -84 -3 -91
c-2 -51 0 -96 4 -101 15 -19 8 -53 -17 -76 -30 -28 -42 -64 -50 -155 -9 -94
-21 -138 -45 -160 -20 -18 -20 -18 -20 311 0 336 18 734 45 996 20 203 44 387
55 423 4 17 11 59 13 95 3 36 10 85 16 110 5 25 17 88 27 140 9 52 23 129 30
170 8 41 19 104 24 140 15 94 30 134 43 121 12 -12 19 -109 37 -456 5 -115 14
-226 20 -245 5 -19 10 -63 10 -98 0 -35 7 -111 15 -170 13 -95 26 -196 56
-427 5 -38 13 -99 19 -135 6 -36 17 -114 25 -175 23 -170 35 -244 44 -268 9
-21 9 -21 16 6 4 15 5 71 1 125 -3 53 -10 165 -15 247 -12 198 -12 862 0 1045
5 80 13 238 17 352 4 114 11 210 15 214 14 15 36 -20 48 -74 6 -31 24 -104 40
-162 15 -58 33 -125 40 -150 6 -25 18 -63 25 -85 8 -23 14 -48 14 -57 0 -10 6
-32 14 -50 7 -18 20 -55 29 -83 45 -149 112 -354 123 -382 8 -17 14 -42 14
-55 0 -24 25 -68 39 -68 4 0 11 179 15 398 9 489 19 723 29 739 13 20 111 63
120 54 6 -6 4 -68 -3 -148z m151 106 l39 -31 0 -186 c0 -103 -5 -359 -11 -570
-14 -453 -21 -422 96 -414 132 8 135 -15 10 -82 -45 -25 -88 -52 -95 -61 -10
-12 -11 -71 -4 -283 l9 -267 111 -3 c81 -2 114 1 122 10 7 9 8 117 4 348 -7
321 4 1442 13 1486 6 26 70 66 98 62 20 -3 20 -8 16 -238 -2 -129 -4 -622 -4
-1096 0 -704 2 -864 13 -877 22 -26 4 -40 -25 -19 -29 21 -53 80 -53 132 0 55
-10 80 -31 80 -11 0 -19 -3 -19 -7 0 -5 -2 -147 -3 -318 -2 -308 -2 -310 -26
-350 -76 -126 -128 -124 -193 5 -22 43 -23 57 -28 353 -3 195 -9 307 -15 307
-15 -1 -35 -66 -42 -143 -4 -51 -12 -76 -29 -96 l-22 -26 -6 35 c-3 19 -10
233 -17 475 -17 629 -1 1752 26 1796 10 15 26 10 66 -22z m744 -2289 l0 -365
-27 -51 c-30 -56 -84 -109 -134 -130 -43 -18 -137 -19 -132 -1 6 16 78 57 103
57 31 0 64 27 96 78 l29 46 0 346 c0 300 2 349 16 368 9 13 23 22 32 20 15 -3
17 -37 17 -368z"/>
<path d="M4767 4833 c-3 -5 -13 -65 -21 -133 -25 -191 -45 -334 -63 -453 -19
-132 -17 -136 77 -139 l65 -3 -3 165 c-3 190 -30 551 -42 563 -4 5 -10 5 -13
0z"/>
<path d="M3102 4818 c-5 -7 -13 -42 -16 -78 -19 -184 -28 -266 -42 -377 -9
-68 -14 -130 -10 -138 8 -22 144 -22 153 1 4 12 -28 360 -53 562 -5 43 -14 51
-32 30z"/>
<path d="M1356 4834 c-3 -9 -10 -75 -16 -147 -5 -73 -14 -190 -20 -262 -6 -71
-10 -173 -8 -225 l3 -95 65 3 c35 1 69 7 74 12 12 12 9 136 -5 182 -9 30 -27
173 -49 383 -14 141 -29 189 -44 149z"/>
<path d="M1442 3848 c-16 -16 -17 -444 -1 -454 19 -11 63 30 92 86 23 46 27
66 27 136 0 72 -3 85 -19 94 -16 8 -19 20 -18 64 1 32 -4 61 -12 70 -16 19
-52 21 -69 4z"/>
<path d="M1966 3844 c-3 -9 -6 -112 -6 -230 0 -187 2 -215 16 -221 24 -9 74
47 95 108 15 42 19 82 19 194 0 96 -4 145 -12 153 -18 18 -105 15 -112 -4z"/>
<path d="M2507 3858 c-17 -12 -18 -36 -15 -345 3 -317 4 -333 24 -359 30 -41
41 -40 63 5 20 38 21 57 21 371 0 308 -1 330 -17 330 -10 0 -27 3 -38 6 -11 3
-28 -1 -38 -8z"/>
</g>
</svg>
